:SAMPLES-PER-SECOND 30
:FULLY-SPECIFIED
:DEGREES
760
root  -57.342 38.8644 20.3108 174.913 -74.9444 -177.98
RightUpLeg  -12.3083 -13.9611 -18.3005
RightLeg  16.993 2.91459 0.745616
RightFoot  6.66719 -2.02327 13.0413
RightToes  5.82063e-011 0 -3.6325e-017
Spine  30.7738 -1.46941 3.11657
Spine1  1.79872 0.118628 -4.03301
HEad  76.4996 29.0351 -163.066
LeftShoulder1  2.01311 -5.38208 -15.8879
LeftArm  -1.27066 -37.8345 -49.3442
LeftForeArm  15.1332 -15.1673 -6.14518
LeftHand  -0.138665 4.04899 9.78356
RightShoulder  0.30358 -2.41966 22.2695
RightArm  -1.25595 28.6271 38.1529
RightForeArm  -8.36392 30.9707 7.15966
RightHand  -1.72733 10.5816 -12.8675
LeftUpLeg  -18.6574 13.5587 2.94293
LeftLeg  29.4046 -5.49946 -2.99209
LeftFoot  -6.53574 -0.0398357 1.8606
LeftToes  1.54581e-011 7.46816e-011 -4.69922e-011
761
root  -57.3696 39.283 21.146 176.331 -71.216 -179.354
RightUpLeg  -13.5388 -13.7774 -16.4042
RightLeg  25.6932 -0.564681 -0.480359
RightFoot  3.81082 -1.414 10.814
RightToes  5.82063e-011 0 -3.6325e-017
Spine  29.3219 -1.54849 2.55995
Spine1  2.47572 0.11648 -5.36536
HEad  76.5675 26.1804 -161.164
LeftShoulder1  2.08431 -4.5687 -19.302
LeftArm  -0.886547 -30.3685 -45.2976
LeftForeArm  20.8352 -9.53737 -9.02005
LeftHand  -0.0236594 5.20668 5.70259
RightShoulder  0.158412 -2.93656 23.2334
RightArm  10.4106 25.9014 44.066
RightForeArm  -12.8606 21.5473 5.90688
RightHand  -1.4799 9.68344 -11.7367
LeftUpLeg  -16.4045 15.1249 1.68572
LeftLeg  25.1051 -3.71783 -1.51412
LeftFoot  -4.90822 -0.120936 2.68501
LeftToes  1.54581e-011 7.46816e-011 -4.69922e-011
762
root  -57.477 39.6544 21.9465 177.819 -67.0615 179.157
RightUpLeg  -14.0033 -14.6375 -14.816
RightLeg  33.6635 -2.04895 -1.70302
RightFoot  1.67826 -1.02918 9.10915
RightToes  5.82063e-011 0 -3.6325e-017
Spine  27.68 -1.66567 1.56973
Spine1  3.15341 -0.108019 -6.34722
HEad  74.5977 25.0739 -161.653
LeftShoulder1  1.98023 -3.41952 -22.3693
LeftArm  -1.74797 -21.9966 -42.3171
LeftForeArm  27.3752 -3.45971 -10.6953
LeftHand  -0.00397012 5.98409 5.54331
RightShoulder  0.0479263 -3.31816 24.2918
RightArm  15.7187 23.1512 48.9557
RightForeArm  -10.7625 11.3035 7.51934
RightHand  -1.26113 7.66285 -11.5121
LeftUpLeg  -13.8839 15.882 0.607923
LeftLeg  20.5405 -0.435701 -0.465025
LeftFoot  -3.45976 -0.179542 2.92317
LeftToes  1.54581e-011 7.46816e-011 -4.69922e-011
763
root  -57.5666 39.9103 22.7182 178.774 -62.8694 178.382
RightUpLeg  -14.1097 -15.3482 -13.3003
RightLeg  41.0637 -2.74985 -2.84048
RightFoot  0.244209 -0.78417 7.74609
RightToes  5.82063e-011 0 -3.6325e-017
Spine  27.0967 -1.33586 0.150002
Spine1  1.90383 -0.465107 -5.1176
HEad  67.342 34.3839 -170.179
LeftShoulder1  1.82223 -2.02453 -26.7592
LeftArm  -0.349993 -13.1667 -39.4977
LeftForeArm  32.9624 1.47947 -11.6722
LeftHand  0.0446014 8.0618 3.42722
RightShoulder  0.126802 -3.03988 23.3475
RightArm  13.56 17.0014 52.1342
RightForeArm  -4.52061 4.25137 8.25507
RightHand  -1.07237 6.01145 -11.2089
LeftUpLeg  -11.7891 12.0021 0.553777
LeftLeg  16.5467 7.40951 -0.102415
LeftFoot  -2.25166 -0.234019 3.09725
LeftToes  1.54581e-011 7.46816e-011 -4.69922e-011
764
root  -57.6688 40.0361 23.4425 179.571 -58.4276 177.662
RightUpLeg  -13.2796 -15.8166 -12.3233
RightLeg  47.181 -2.86061 -3.60495
RightFoot  -0.942304 -0.642838 6.9814
RightToes  5.82063e-011 0 -3.6325e-017
Spine  25.9731 -1.19348 -0.123533
Spine1  1.80965 -0.225503 -6.17857
HEad  69.299 29.4094 -166.353
LeftShoulder1  1.55906 -0.940837 -29.0677
LeftArm  -0.692044 -3.14433 -38.1962
LeftForeArm  36.8727 3.10315 -11.2607
LeftHand  0.0496963 9.48439 2.78392
RightShoulder  -0.227917 -4.1736 26.52
RightArm  12.4328 10.6088 50.5611
RightForeArm  -4.78068 2.28637 7.76716
RightHand  -1.18171 5.83755 -12.4589
LeftUpLeg  -10.378 9.03985 0.109871
LeftLeg  13.7137 14.6157 0.00052957
LeftFoot  -1.17789 -0.354448 4.07439
LeftToes  1.54581e-011 7.46816e-011 -4.69922e-011
765
root  -57.765 40.0846 24.1425 -179.246 -53.5489 176.641
RightUpLeg  -11.8512 -16.7763 -12.2599
RightLeg  51.7064 -2.45259 -3.70075
RightFoot  -1.91635 -0.50333 5.94282
RightToes  5.82063e-011 0 -3.6325e-017
Spine  24.2279 -0.718955 -1.18333
Spine1  2.584 0.0186679 -6.14897
HEad  75.0438 16.1825 -156.68
LeftShoulder1  1.01335 0.81323 -31.586
LeftArm  -0.196352 6.89189 -36.8855
LeftForeArm  37.9362 1.47348 -11.1106
LeftHand  -0.0467378 9.82095 0.168489
RightShoulder  -0.567707 -5.10016 28.8019
RightArm  10.2221 3.59169 47.4013
RightForeArm  -6.84749 3.92845 6.77113
RightHand  -1.31863 6.78388 -12.9265
LeftUpLeg  -9.63262 8.05118 -1.11991
LeftLeg  11.3144 20.3393 0.368912
LeftFoot  -0.317335 -0.40323 4.19538
LeftToes  1.54581e-011 7.46816e-011 -4.69922e-011
766
root  -57.9093 40.107 24.8235 -178.615 -48.8321 176.355
RightUpLeg  -9.42982 -18.535 -12.5654
RightLeg  54.1449 -2.62742 -4.29753
RightFoot  -2.50403 -0.403667 5.00798
RightToes  5.82063e-011 0 -3.6325e-017
Spine  22.0415 -0.512847 -1.10485
Spine1  3.76537 0.369107 -6.68291
HEad  74.5083 15.2951 -156.072
LeftShoulder1  0.534429 2.12751 -32.585
LeftArm  -2.00686 18.1642 -37.9706
LeftForeArm  37.5405 -2.00879 -9.63774
LeftHand  -0.124046 9.77581 -1.80219
RightShoulder  -0.918595 -5.98776 30.3848
RightArm  8.74424 -2.86368 43.6551
RightForeArm  -8.97382 6.18335 5.97332
RightHand  -1.17377 8.21868 -10.3101
LeftUpLeg  -9.24849 7.60419 -2.12923
LeftLeg  9.20562 25.2526 0.573836
LeftFoot  0.112204 -0.448257 4.46357
LeftToes  1.54581e-011 7.46816e-011 -4.69922e-011
767
root  -57.9191 40.1211 25.4518 -178.321 -44.7391 176.397
RightUpLeg  -6.29025 -21.0234 -13.2965
RightLeg  54.6751 -3.00298 -4.94643
RightFoot  -2.65719 -0.314769 3.9003
RightToes  5.82063e-011 0 -3.6325e-017
Spine  20.6051 -0.268438 -0.432606
Spine1  3.90836 0.827681 -6.91157
HEad  74.3155 14.5784 -155.488
LeftShoulder1  0.44258 2.35015 -32.3379
LeftArm  -3.16495 27.6653 -39.8801
LeftForeArm  34.0048 -4.13544 -8.98037
LeftHand  -0.14102 9.62677 -2.30144
RightShoulder  -1.16213 -6.60174 31.0002
RightArm  8.96029 -8.53367 39.8283
RightForeArm  -11.2127 8.10919 5.79047
RightHand  -0.947752 6.64447 -9.45124
LeftUpLeg  -9.34855 7.30215 -2.59663
LeftLeg  7.75252 29.5163 0.451379
LeftFoot  0.490405 -0.450048 4.3123
LeftToes  1.54581e-011 7.46816e-011 -4.69922e-011
768
root  -57.8448 40.0837 26.0593 -178.478 -41.0444 176.159
RightUpLeg  -1.83111 -23.5638 -15.1072
RightLeg  53.1628 -3.01091 -4.70477
RightFoot  -3.34752 -0.246812 3.20792
RightToes  5.82063e-011 0 -3.6325e-017
Spine  19.8904 0.167699 -0.583161
Spine1  4.03706 1.01203 -5.63551
HEad  73.1408 13.8894 -156.132
LeftShoulder1  0.386207 2.51715 -33.1315
LeftArm  -3.534 33.6606 -41.2327
LeftForeArm  33.3803 -4.94276 -8.90209
LeftHand  -0.232407 9.87631 -4.33154
RightShoulder  -1.11595 -6.54603 30.1495
RightArm  8.27259 -13.0646 37.1285
RightForeArm  -11.9049 8.61364 5.22079
RightHand  -0.880343 6.23051 -9.08594
LeftUpLeg  -9.41009 7.22224 -2.91782
LeftLeg  7.34528 33.3448 0.369594
LeftFoot  0.870834 -0.526755 4.86987
LeftToes  1.54581e-011 7.46816e-011 -4.69922e-011
769
root  -57.7297 40.073 26.649 -179.005 -37.3434 176.184
RightUpLeg  2.97604 -26.0061 -17.149
RightLeg  49.5307 -3.10868 -4.23422
RightFoot  -3.77873 -0.181192 2.35224
RightToes  5.82063e-011 0 -3.6325e-017
Spine  18.7556 0.208388 0.973256
Spine1  4.96776 1.64367 -6.72717
HEad  71.8082 9.39753 -155.281
LeftShoulder1  0.538422 2.09106 -31.9942
LeftArm  -5.89234 36.6813 -44.0288
LeftForeArm  36.977 -4.89369 -8.05881
LeftHand  -0.355416 10.0185 -7.23214
RightShoulder  -1.19462 -6.72201 30.6081
RightArm  8.50678 -14.9447 34.625
RightForeArm  -14.5412 7.37455 5.11472
RightHand  -1.15068 6.24926 -11.7791
LeftUpLeg  -9.53762 7.70611 -2.71684
LeftLeg  7.42367 36.8088 0.070219
LeftFoot  1.24308 -0.669543 6.00061
LeftToes  1.54581e-011 7.46816e-011 -4.69922e-011
770
root  -57.5217 40.0891 27.2231 -179.249 -32.8079 176.632
RightUpLeg  6.72763 -27.6031 -18.1637
RightLeg  44.086 -4.28166 -4.71434
RightFoot  -4.73266 -0.146091 1.97038
RightToes  5.82063e-011 0 -3.6325e-017
Spine  17.3524 0.457095 2.48965
Spine1  5.61056 2.38603 -7.30405
HEad  71.1404 -3.89683 -148.26
LeftShoulder1  0.508172 2.17997 -32.2941
LeftArm  -6.33148 36.592 -44.4343
LeftForeArm  38.5702 -4.53179 -7.86066
LeftHand  -0.418068 10.0691 -8.49492
RightShoulder  -1.17663 -6.69166 30.3946
RightArm  7.72008 -15.4084 33.2924
RightForeArm  -16.2702 6.13635 4.72815
RightHand  -1.21538 5.2437 -13.4327
LeftUpLeg  -10.02 8.23879 -1.94782
LeftLeg  6.92986 40.8989 -0.279589
LeftFoot  1.8579 -0.777152 6.60804
LeftToes  1.54581e-011 7.46816e-011 -4.69922e-011
